# xmcd
#
# Track frame offsets:
#	150
#	15892
#	30627
#	46680
#	57005
#	72905
#	86460
#	102177
#	118067
#	132752
#	147742
#	157137
#	175867
#
# Disc length: 2512 seconds
#
# Revision: 1
# Processed by: cddbd v1.5.2PL0 Copyright (c) Steve Scherf et al.
# Submitted via: audiograbber 1.83.01
#
DISCID=a609ce0d
DTITLE=L A Country Riders - Ride On L A Country Riders
DYEAR=1996
DGENRE=Country
TTITLE0=I´m Not Trying To Forget You
TTITLE1=Take Me Home Country Roads
TTITLE2=Woman
TTITLE3=If You Need Me
TTITLE4=Jackson
TTITLE5=Runaway Feeling
TTITLE6=Blue Eyes Crying In The Rain
TTITLE7=Little Pretty Annie
TTITLE8=Why´d You Been Gone So Long
TTITLE9=A Good Hearted Woman
TTITLE10=Down On The Corner
TTITLE11=Couple More Years
TTITLE12=Who Were You Thinking Of
EXTD=
EXTT0=
EXTT1=
EXTT2=
EXTT3=
EXTT4=
EXTT5=
EXTT6=
EXTT7=
EXTT8=
EXTT9=
EXTT10=
EXTT11=
EXTT12=
PLAYORDER=
